<?xml version="1.0" encoding="UTF-8"?>
<svg xmlns="http://www.w3.org/2000/svg" version="1.1" viewBox="0 0 493 153.2">
  <defs>
    <style>
      .cls-1 {
        fill: #fff;
      }
    </style>
  </defs>
  <!-- Generator: Adobe Illustrator 28.6.0, SVG Export Plug-In . SVG Version: 1.2.0 Build 709)  -->
  <g>
    <g id="Capa_1">
      <g>
        <path class="cls-1" d="M3,151.6c-2,0-3-.9-3-2.8V20.8c0-2,1-3,3-3h35.2c10.5,0,19,1.4,25.5,4.2,6.6,2.8,11.4,7.3,14.5,13.4,3.1,6.2,4.7,14.4,4.7,24.8s-1.2,13-3.5,19.2c-2.3,6.2-5.9,11.4-10.8,15.8-2,2-3.5,3.8-4.5,5.5-1,1.7-.6,3.8,1.1,6.5,1.2,1.9,2.3,3.7,3.5,5.4,1.1,1.7,2.3,3.2,3.7,4.6,1.3,1.3,2.8,2.5,4.6,3.6,1.9,1.2,4.1,2.1,6.7,2.8,2.6.7,5.7,1,9.2,1s2.3.2,2.6.5.4,1.3.4,2.9v21.3c0,.8-.2,1.4-.5,1.7s-1.3.6-2.8.7c-1.5.1-4.1.2-7.9.2-5.6,0-10.7-.8-15.4-2.4-4.7-1.6-9-3.8-12.8-6.6-3.2-2.4-6.1-5.2-8.8-8.4-2.7-3.2-5.1-6.7-7.3-10.4-2.1-3.8-4-7.8-5.6-12-.1-.3-.4-1.1-.9-2.4-.5-1.3-1-2-1.5-2h-1.2c-.7,0-1,1.1-1,3.2v38.2c0,1.9-1.1,2.8-3.2,2.8H3ZM30.2,82c0,.7.1,1.1.3,1.3.2.2.6.3,1.3.3h5.4c5,0,9-2.2,11.9-6.5s4.4-9.9,4.4-16.8-.7-10.7-2.1-13.8c-1.4-3.1-3.3-5.2-5.8-6.4s-5.3-1.7-8.7-1.7h-5.4c-.5,0-.9,0-1.1.2s-.3.7-.3,1.6v41.7h0Z"/>
        <path class="cls-1" d="M145.8,153.2c-11.8,0-20.9-2.1-27.3-6.5-6.4-4.3-10.9-10.2-13.3-17.6-2.4-7.4-3.7-15.8-3.7-25.1s1.4-17.3,4.2-24.6c2.8-7.2,7.4-12.9,13.8-17.1,6.4-4.2,15.2-6.3,26.3-6.3s19.9,2.1,26.4,6.3c6.4,4.2,11,9.9,13.8,17.1,2.8,7.2,4.2,15.4,4.2,24.6s-1.2,17.4-3.7,24.9c-2.4,7.4-6.9,13.3-13.3,17.7-6.4,4.4-15.5,6.6-27.3,6.6M145.4,131.2c5.4,0,9.2-2.3,11.4-6.9,2.2-4.6,3.3-11,3.3-19.4s-1.2-14.4-3.6-18.7c-2.4-4.2-6.1-6.4-11.1-6.4s-8.6,2.1-10.9,6.4-3.6,10.5-3.6,18.7,1.1,15,3.3,19.5c2.2,4.5,6,6.8,11.3,6.8"/>
        <path class="cls-1" d="M242.4,153.2c-11.8,0-20.9-2.1-27.3-6.5-6.4-4.3-10.9-10.2-13.3-17.6-2.5-7.4-3.7-15.8-3.7-25.1s1.4-17.3,4.2-24.6c2.8-7.2,7.4-12.9,13.8-17.1,6.4-4.2,15.2-6.3,26.4-6.3s19.9,2.1,26.4,6.3,11,9.9,13.8,17.1c2.8,7.2,4.2,15.4,4.2,24.6s-1.2,17.4-3.7,24.9c-2.5,7.4-6.9,13.3-13.3,17.7-6.4,4.4-15.6,6.6-27.4,6.6M242,131.2c5.4,0,9.2-2.3,11.4-6.9,2.2-4.6,3.3-11,3.3-19.4s-1.2-14.4-3.6-18.7c-2.4-4.2-6.1-6.4-11.1-6.4s-8.6,2.1-10.9,6.4-3.6,10.5-3.6,18.7,1.1,15,3.3,19.5c2.2,4.5,5.9,6.8,11.2,6.8"/>
        <path class="cls-1" d="M335.5,151.6c-9.3,0-16.2-1.9-20.8-5.8-4.6-3.8-7.6-9.2-9-16.1-1.1-5.6-1.7-11.2-1.8-17-.1-5.8-.2-11.5-.2-17.2s0-6.8.1-9.3c0-2.5.2-5.4.3-8.8,0-1.3-.6-2-1.8-2h-7.6c-1.2,0-2-.1-2.4-.4-.4-.3-.6-1.2-.6-2.8v-11.1c0-1.8.2-2.9.6-3.1.4-.2,1.4-.3,3-.3h7.8c1.1,0,1.7-.3,1.8-.9.1-.6.3-1.6.4-2.9l.8-14.1c0-1.8.9-2.8,2.8-2.8h22.7c.8,0,1.6.3,2.3.8.7.5,1,1.2.9,2l-1,14.3c-.1,1.7-.1,2.8.1,3.1.2.3.7.5,1.5.5h14.5c1.6,0,2.5.2,2.8.5.3.3.4,1.4.4,3.3v10.5c0,1.5-.2,2.4-.7,2.8-.5.4-1.4.6-2.9.6h-14.3c-.9,0-1.6.2-1.9.7-.3.5-.5,1.2-.5,2.3-.1,3.1-.2,6.2-.3,9.4,0,3.2-.2,6.6-.3,10,0,4.4.1,8.8.4,13.2.3,4.4.9,8.7,1.8,12.6.7,2.1,1.6,3.6,2.9,4.5,1.3.9,2.7,1.3,4.3,1.3s2.9-.2,4.3-.7c1.4-.5,2.5-.8,3.3-1.1,1.7-1.1,2.8-1.4,3.3-1s1,1.3,1.5,2.8l4,13.7c.5,1.1.3,2-.6,2.8-.9.8-2.7,1.7-5.4,2.8-1.6.5-3.3,1-5.1,1.5-1.8.5-3.6.8-5.5,1-1.9.2-3.8.3-5.8.3"/>
        <path class="cls-1" d="M397.5,126.4c.4-1.7,1.1-2.4,2.1-2.2,1,.3,2,.7,2.9,1.2,2.2,1.1,4.9,2,7.9,2.8,3,.8,6,1.4,9.1,1.9,3.1.5,5.9.7,8.5.7s4.5-.2,6.3-.6c1.8-.4,3.2-1.1,4.4-2,1.1-.9,1.7-2.1,1.7-3.6.1-2.2-1-4.1-3.5-5.5-2.5-1.4-6.8-2.8-13-4.3-4.1-1.1-8.4-2.5-12.8-4.4-4.4-1.8-8.1-4.6-11.1-8.3-3-3.7-4.5-8.7-4.5-14.9s1.8-12.6,5.3-17c3.5-4.4,8-7.8,13.6-10s11.5-3.4,17.9-3.4,10.4.8,16.4,2.3c6,1.5,11,3.4,15,5.7,1.5.8,2.2,1.5,2.3,2.1s-.1,1.4-.5,2.5l-5.4,14.5c-.4,1.9-1.8,2.3-4.2,1.4-3-1.6-6.7-3.2-10.8-4.7s-8.5-2.3-12.8-2.3-4.1.5-6,1.5c-1.9,1-2.8,2.4-2.8,4.3s1.2,4.1,3.5,5.2,5.7,2.2,10.2,3.4c3.5.9,6.9,1.9,10.3,2.9,3.5,1,6.7,2.4,9.6,4.4,3,1.9,5.4,4.5,7.2,7.8,1.8,3.3,2.7,7.7,2.7,13.1s-1.2,11.2-3.5,15.2c-2.3,4.1-5.4,7.3-9.2,9.7-3.9,2.5-8,4.2-12.5,5.3s-9,1.6-13.3,1.6-5.8-.3-9.8-.8-8-1.4-12-2.7-7.5-2.9-10.4-4.9c-.5-.4-1-.9-1.4-1.4-.4-.5-.5-1.2-.4-2l3.2-14.5Z"/>
        <path class="cls-1" d="M367.1,20.2c-8.5,11.9-1.2,23.2,1,27,9-21.8,28-34.2,28-34.2,0,0-31.4,27.2-30.9,53.2,0,2.1,5.2,2.4,5.3,0,.1-7.4,4.9-15.9,4.9-15.9,5.8,2.3,19.8-2.3,24.7-10.6,6.5-11,7.2-21.8,10.8-39.3.4-2-32.2,3.6-43.9,19.8h0Z"/>
      </g>
      <g>
        <path class="cls-1" d="M480,138.4c.8-.2,1.8-.2,2.9-.2,1.6,0,2.6.3,3.4.9.6.5.9,1.3.9,2.2,0,1.5-1,2.5-2.2,3h0c.9.4,1.4,1.2,1.7,2.4.4,1.6.7,2.7.9,3.2h-1.5c-.2-.3-.4-1.3-.8-2.8-.3-1.6-1-2.2-2.3-2.3h-1.4v5h-1.5v-11.4ZM481.5,143.6h1.5c1.6,0,2.6-.9,2.6-2.2s-1.1-2.2-2.7-2.2c-.7,0-1.2,0-1.5.1v4.2Z"/>
        <path class="cls-1" d="M483.7,134.7c-5.1,0-9.3,4.2-9.3,9.3s4.2,9.3,9.3,9.3,9.3-4.2,9.3-9.3-4.2-9.3-9.3-9.3ZM483.7,151.5c-4.2,0-7.5-3.4-7.5-7.5s3.4-7.5,7.5-7.5,7.5,3.4,7.5,7.5-3.4,7.5-7.5,7.5Z"/>
      </g>
    </g>
  </g>
</svg>